<svg xmlns="http://www.w3.org/2000/svg" xmlns:xlink="http://www.w3.org/1999/xlink" version="1.1" id="layer" x="0px" y="0px" style="enable-background:new 0 0 652 652;" xml:space="preserve" viewBox="27 271.5 600 108.1">
<style type="text/css">
	.st0{fill:#0B3541;}
</style>
<path class="st0" d="M91,322.6c7-4.1,11.1-12.2,11.1-21.8c0-14.8-10.7-26.6-28.8-26.6H27v102.6h48.9c18.6,0,30.1-12.4,30.1-29  C106,336.6,100.4,327.4,91,322.6 M45.3,291.8h25.5c9.2,0,13.8,5.2,13.8,11.6c0,7.4-4.6,12-13.5,12H45.3V291.8z M45.3,359.1v-26h26.9  c9.6,0,14.8,5.7,14.8,13.1s-5,13.1-14.8,13.1L45.3,359.1L45.3,359.1z M434,271.5c-31.4,0-53.1,24-53.1,54.4  c0,30.1,21.6,53.7,53.1,53.7c31.2,0,52.8-23.6,52.8-53.7C486.8,295.3,465.2,271.5,434,271.5 M434,361.7c-20.5,0-34.5-15.3-34.5-36  c0-21,14.4-36.5,34.5-36.5s34.5,15.5,34.5,36.5C468.3,346.6,454.1,361.7,434,361.7 M123.9,376.8h52.4l24-17.7h-58.1v-26h48.3v-17.7  h-48.3v-23.6h54.1v-17.7h-72.5V376.8z M292.7,291.8h35.6v84.9h18.3v-84.9h31.2v-17.7h-61.1L292.7,291.8z M608,274.1l-19,74l-19.2-74  h-19.7l-19.4,73.8l-18.8-73.8h-19l26.4,102.6h21.8l18.8-71.6l18.6,71.6h22.1L627,274.1H608z M265.2,320c0,0-5-2.2-14.4-6.1  c-9-3.9-18.1-8.7-18.1-14.4c0-6.1,7.6-10.3,17.5-10.3c15.5,0,24.5,9.2,24.5,9.2l14.4-10.5c0,0-2-3.1-9.6-8.1  c-8.1-5.5-18.3-8.3-28.4-8.3c-21,0-37.8,11.8-37.8,29c0,12.4,7.6,21.6,22.3,27.9l17.2,7.4c9.2,3.9,15.3,6.3,15.3,14.8  c0,6.8-6.8,11.4-17.9,11.4c-18.6,0-28.6-11.4-28.6-11.4l-14.2,10c0,0.2,1.1,1.5,2.8,3.1l0,0l0.2,0.2c10.5,9.8,24.2,15.3,38.6,15.3  c22.7,0,38.6-12.9,38.6-31.2C287.9,334.8,280.9,326.5,265.2,320z"/>
</svg>