<svg id="Group_6" data-name="Group 6" xmlns="http://www.w3.org/2000/svg" width="25" height="32.001" viewBox="0 0 25 32.001">
  <rect id="Rectangle" width="25" height="32" fill="none"/>
  <path id="Fill_1" data-name="Fill 1" d="M6.356,32h-2.7l7.239-18.889a4.432,4.432,0,0,0,2.691-.068L20.522,32H17.846L15.007,24.07l-2.784-7.9L9.3,24.07,6.356,32ZM2.742,21.218H.563A.571.571,0,0,1,0,20.639V18.144a.571.571,0,0,1,.563-.579h.655V14.086l-.869-2.18L8.876,8.465a3.124,3.124,0,0,1,5.455-2.2l4.713-1.9-1.305-2.11L23.354,0l1.468,6.931A1.074,1.074,0,0,1,24.2,8.239l-1.381.554a1.068,1.068,0,0,1-1.354-.515L20.3,6.387,15.125,8.474a3.126,3.126,0,0,1-5.287,2.133L2.434,13.6v3.97h.308a.571.571,0,0,1,.562.579v2.495A.571.571,0,0,1,2.742,21.218Z" transform="translate(0)" fill="#000"/>
</svg>
